<?xml version="1.0" encoding="UTF-8"?>
<svg id="Capa_2" data-name="Capa 2" xmlns="http://www.w3.org/2000/svg" viewBox="0 0 3.9 15.64">
  <defs>
    <style>
      .cls-1 {
        fill: #fff;
        stroke-width: 0px;
      }
    </style>
  </defs>
  <g id="Capa_1-2" data-name="Capa 1">
    <path class="cls-1" d="m3.68,0H0s0,15.64,0,15.64h1.81c.11,0,.2-.08.22-.19l.15-1.19s0,0-.01,0c-.39-.05-.67-.4-.62-.79l.09-.71c.05-.39.4-.67.79-.62,0,0,0,0,.01,0l.18-1.45s0,0,0,0c-.39-.05-.67-.4-.62-.79l.09-.71c.05-.39.4-.67.79-.62,0,0,0,0,0,0l.18-1.45s0,0,0,0c-.39-.05-.67-.4-.62-.79l.1-.77c.05-.39.4-.64.79-.56l.18-1.45h0c-.39,0-.68-.34-.63-.73l.11-.85c.05-.39.4-.64.78-.55h0s.14-1.17.14-1.17c.02-.13-.09-.24-.22-.24Z"/>
  </g>
</svg>