<?xml version="1.0" encoding="UTF-8"?>
<svg id="Capa_2" data-name="Capa 2" xmlns="http://www.w3.org/2000/svg" viewBox="0 0 68.48 94.82">
  <defs>
    <style>
      .cls-1 {
        fill: #ff0037;
        stroke-width: 0px;
      }
    </style>
  </defs>
  <g id="Capa_1-2" data-name="Capa 1">
    <path class="cls-1" d="m66.99,0h-16.87c-.08,2.06-.94,3.94-2.61,5.61-2.24,2.24-4.8,3.37-7.71,3.4-2.9.03-5.41-1.01-7.52-3.11-1.72-1.72-2.59-3.64-2.59-5.75,0-.05.01-.1.01-.15H13.14c-.45,0-.86.16-1.22.47-.36.32-.59.7-.68,1.15L0,93.2c0,1.08.5,1.62,1.49,1.62h16.76c.06-2.1.93-4,2.62-5.7,2.23-2.23,4.8-3.37,7.71-3.4,2.91-.03,5.41,1.01,7.52,3.11,1.72,1.72,2.59,3.64,2.58,5.75,0,.08-.02.15-.02.23h16.67c.45,0,.86-.16,1.22-.47.36-.32.59-.7.68-1.15L68.48,1.62c0-1.08-.5-1.62-1.49-1.62ZM17.06,35.1s-.03.07-.06.1c-.03.03-.07.04-.11.04h-4.77c-.09,0-.13-.05-.13-.14l1-8.1s.03-.07.06-.1c.03-.03.07-.04.11-.04h4.77c.09,0,.13.05.13.14l-1,8.1Zm10.73,0s-.03.07-.06.1c-.03.03-.07.04-.11.04h-4.77c-.09,0-.13-.05-.13-.14l1-8.1s.03-.07.06-.1c.03-.03.07-.04.11-.04h4.77c.09,0,.13.05.13.14l-1,8.1Zm10.73,0s-.03.07-.06.1c-.03.03-.07.04-.11.04h-4.77c-.09,0-.13-.05-.13-.14l1-8.1s.03-.07.06-.1c.03-.03.07-.04.11-.04h4.77c.09,0,.13.05.13.14l-1,8.1Zm10.73,0s-.03.07-.06.1c-.03.03-.07.04-.11.04h-4.77c-.09,0-.13-.05-.13-.14l1-8.1s.03-.07.06-.1c.03-.03.07-.04.11-.04h4.77c.09,0,.13.05.13.14l-1,8.1Zm10.73,0s-.03.07-.06.1c-.03.03-.07.04-.11.04h-4.77c-.09,0-.13-.05-.13-.14l1-8.1s.03-.07.06-.1c.03-.03.07-.04.11-.04h4.77c.09,0,.13.05.13.14l-1,8.1Z"/>
  </g>
</svg>