<?xml version="1.0" encoding="UTF-8"?>
<svg id="Capa_2" data-name="Capa 2" xmlns="http://www.w3.org/2000/svg" viewBox="0 0 136.79 84.37">
  <defs>
    <style>
      .cls-1 {
        fill: none;
        stroke: #fff;
        stroke-linejoin: round;
        stroke-width: 1.3px;
      }
    </style>
  </defs>
  <g id="Capa_1-2" data-name="Capa 1">
    <g>
      <path class="cls-1" d="m102.51,16.3s-.02,0-.03,0c-.94-.07-1.74-.53-1.8-1.01l-.1-.88c-.06-.48.64-.8,1.56-.74,0,0,.02,0,.02,0l-.23-1.72s-.01,0-.02,0c-.9-.06-1.67-.48-1.72-.93l-.09-.81c-.05-.44.62-.74,1.5-.68,0,0,.01,0,.02,0l-.21-1.59s-.01,0-.02,0c-.87-.06-1.6-.44-1.65-.86l-.1-.82c-.05-.41.61-.67,1.46-.57l-.2-1.47h-.01c-.82-.01-1.53-.34-1.58-.73l-.1-.84c-.04-.38.59-.61,1.4-.52h0s-.15-1.11-.15-1.11c-.02-.12-.26-.23-.53-.23l-38.72-.13c-.24,0-.46.05-.66.13-.19.08-.31.18-.34.29l-.98,3.28c-.04.12.15.24.4.25h.37c.6.03,1.02.05,1.26.06,1.94.14,3.4.54,4.41,1.2,1.02.67,1.41,1.51,1.16,2.55-.28,1.14-1.22,2.07-2.84,2.78-1.64.72-3.69,1.06-6.13,1.01-.2,0-.37-.01-.53-.02-.25,0-.47.09-.51.22l-1.36,4.56c-.1.34.17.59.86.6l45.95.52c.26,0,.45-.1.43-.25l-.21-1.54Zm29.42,5.98l1.09-4.25c.04-.15-.21-.33-.53-.4l-.47-.1c-.76-.15-1.29-.26-1.59-.33-2.42-.58-4.21-1.36-5.37-2.33-1.14-.95-1.49-1.95-1.08-2.98.43-1.1,1.56-1.84,3.37-2.24,1.8-.4,4.03-.37,6.7.07.22.04.41.07.58.1.28.05.51,0,.54-.12l.96-3.72c.07-.26-.24-.49-.93-.59l-19.58-2.94c-.24-.04-.45.01-.49.11l-.51,1.06s.02,0,.03,0c.84.17,1.38.6,1.22.96l-.31.66c-.17.37-1,.51-1.85.33,0,0-.01,0-.02,0l-.66,1.38s.01,0,.02,0c.86.19,1.42.65,1.24,1.03l-.33.71c-.18.39-1.04.55-1.92.35,0,0-.01,0-.02,0l-.71,1.47s.01,0,.02,0c.89.2,1.46.7,1.27,1.11l-.38.82c-.2.42-1.09.56-1.98.31l-.76,1.58h.01c.93.18,1.53.68,1.33,1.12l-.45.98c-.21.45-1.13.6-2.03.32h0s-.66,1.36-.66,1.36c-.07.15.14.34.46.4l22.44,4.14c.34.06.64.04.91-.03.26-.07.42-.18.46-.34Z"/>
      <g>
        <path class="cls-1" d="m18.9,56.45c-.23-.85.54-1.8,1.73-2.13l2.15-.61c1.17-.33,2.32.07,2.59.89,0,0,0,.02,0,.02l4.32-1.24s0-.01-.01-.02c-.29-.82.41-1.73,1.55-2.05l2.07-.59c1.13-.32,2.29.06,2.61.86,0,0,0,.01,0,.02l4.16-1.19s0,0,0-.01c-.34-.78.28-1.66,1.38-1.98l2.17-.61c1.1-.31,2.21.08,2.47.88l4.02-1.15h0c-.5-.73-.03-1.56,1.03-1.86l2.31-.66c1.05-.3,2.15.08,2.46.85h0s3.14-.89,3.14-.89c.35-.1.49-.39.3-.62l-6.44-7.86-23.23-9.32c-.57-.23-.52-.57-.03-.89l6.51-4.29c.19-.13.5-.16.7-.07.13.05.28.12.44.18,1.47.57,3.01.88,4.61.94l-4.7-5.74c-.11-.14-.33-.22-.61-.28-.27-.05-.54-.05-.81.01l-7.63,1.73c-.28.06-.45.24-.36.39l.13.22c.21.35.35.59.41.74.5,1.2.25,2.32-.78,3.36-1.05,1.05-2.74,1.85-5.09,2.38-2.56.58-4.88.62-6.93.12-2.03-.49-3.4-1.44-4.09-2.83-.05-.11-.09-.21-.13-.3-.06-.14-.32-.2-.59-.14l-9.12,2.06c-.67.15-1.06.45-.89.82l13.76,31.71c.1.23.43.33.77.23l3.69-1.06s0-.02-.01-.02Z"/>
        <path class="cls-1" d="m39.44,79.56c.43-.14.66-.57.5-.92l-.23-.51c-.38-.81-.62-1.39-.74-1.73-.91-2.67-.67-5.01.65-7.06,1.29-2,3.46-3.44,6.51-4.35,3.27-.98,6.37-1.01,9.37-.1,3.04.93,5.47,2.73,7.33,5.46.15.23.28.43.39.61.18.29.6.43.96.31l11.6-3.89c.82-.27,1.09-.83.52-1.53l-14.8-18.12c-.16-.2-.51-.28-.8-.2l-3.24.94s.01.01.02.02c.44.77-.08,1.65-1.16,1.97l-1.99.58c-1.09.32-2.32-.06-2.73-.85,0,0,0-.01,0-.02l-4.07,1.18s0,.01.01.02c.39.8-.2,1.72-1.32,2.04l-2.07.61c-1.13.33-2.35-.07-2.71-.88,0,0,0-.01,0-.02l-4.22,1.23s0,0,0,.02c.34.83-.33,1.78-1.49,2.12l-2.32.68c-1.19.35-2.32-.1-2.51-.99l-4.37,1.27h0c.4.84-.26,1.81-1.47,2.16l-2.66.78c-1.22.36-2.32-.11-2.43-1.03h0s-3.66,1.05-3.66,1.05c-.41.12-.66.47-.54.75l9.38,21.69c.15.36.49.59.92.74.42.14.86.14,1.31,0l12.06-4.05Z"/>
      </g>
      <g>
        <path class="cls-1" d="m76.22,42.79s-.02,0-.03-.01c-.95-.47-1.21-1.34-.61-1.93l1.09-1.07c.59-.58,1.82-.68,2.76-.23,0,0,.01,0,.02.01l2.12-2.11s-.02,0-.02,0c-.93-.44-1.22-1.23-.66-1.78l1.01-.99c.55-.53,1.73-.63,2.65-.21,0,0,.01,0,.02.01l1.97-1.96s-.01,0-.02,0c-.91-.4-1.22-1.14-.7-1.65l1.02-1c.51-.5,1.63-.55,2.48-.12l1.83-1.82h-.01c-.94-.33-1.31-.98-.82-1.45l1.05-1.03c.47-.46,1.54-.51,2.37-.1h0s1.38-1.37,1.38-1.37c.15-.15.01-.37-.3-.46l-18.41-5.73-20.08-.23c-.68,0-.96-.25-.86-.6l1.36-4.56c.04-.13.26-.23.51-.22.16,0,.33.01.53.02.2,0,.4,0,.6,0l-4.27-1.33c-.23-.07-.5-.08-.78-.05-.28.03-.5.1-.67.21l-4.87,3.21c-.18.12-.15.3.07.38l.33.12c.53.2.9.34,1.1.43,1.63.74,2.52,1.61,2.66,2.63.14,1.04-.53,2.07-2.03,3.1-1.66,1.14-3.67,1.83-6.02,2.07-2.35.24-4.6-.06-6.7-.88-.17-.07-.31-.13-.44-.18-.21-.09-.51-.06-.7.07l-6.51,4.29c-.49.32-.54.66.03.89l43.87,17.59c.29.11.63.07.81-.1l1.88-1.87Z"/>
        <path class="cls-1" d="m104.87,56.16l4.57-6.2c.16-.22-.02-.53-.4-.69l-.55-.23c-.87-.36-1.48-.62-1.82-.78-2.69-1.29-4.41-2.75-5.18-4.38-.75-1.59-.47-3.1.8-4.53,1.35-1.52,3.32-2.42,5.92-2.71,2.59-.29,5.44.1,8.58,1.19.25.09.48.17.68.25.32.12.67.08.79-.09l3.9-5.29c.27-.37.03-.75-.79-1.01l-22.73-7.08c-.27-.08-.56-.05-.69.08l-1.4,1.42s.02,0,.03,0c.91.37,1.28,1.05.81,1.53l-.86.89c-.47.49-1.61.58-2.53.2,0,0-.01,0-.02-.01l-1.81,1.85s.02,0,.02,0c.93.39,1.28,1.13.78,1.65l-.92.96c-.51.53-1.69.62-2.63.21,0,0-.01,0-.02,0l-1.95,1.99s.01,0,.02,0c.94.43,1.28,1.22.75,1.78l-1.08,1.12c-.55.58-1.76.63-2.66.13l-2.1,2.14h.01c1.02.41,1.38,1.22.8,1.82l-1.29,1.33c-.6.62-1.83.67-2.73.12h0s-1.83,1.86-1.83,1.86c-.21.21-.08.52.27.66l25.21,10.13c.39.16.8.18,1.2.12.4-.06.68-.2.85-.43Z"/>
      </g>
    </g>
  </g>
</svg>